<?xml version="1.0" encoding="utf-8"?>
<!-- Uploaded to: SVG Repo, www.svgrepo.com, Generator: SVG Repo Mixer Tools -->
<svg width="800px" height="800px" viewBox="0 0 1024 1024" fill="#000000" class="icon"  version="1.1" xmlns="http://www.w3.org/2000/svg"><path d="M551.998 895.976h-111.992c-4.422 0-8-3.578-8-8V136.024c0-4.422 3.578-8 8-8h111.992c4.422 0 8 3.578 8 8v751.952c0 4.422-3.578 8-8 8z m-103.994-16H544V144.024h-95.996v735.952z" fill="" /><path d="M496.002 559.996c-17.938 0-31.998-21.076-31.998-47.996 0-26.912 14.06-47.998 31.998-47.998 17.936 0 31.998 21.084 31.998 47.998 0 26.92-14.062 47.996-31.998 47.996z m0-79.994c-7.546 0-16 13.686-16 31.998s8.454 31.998 16 31.998S512 530.312 512 512s-8.452-31.998-15.998-31.998zM496.002 687.988c-17.938 0-31.998-21.092-31.998-48.012 0-26.904 14.06-47.98 31.998-47.98 17.936 0 31.998 21.076 31.998 47.98 0 26.92-14.062 48.012-31.998 48.012z m0-79.994c-7.546 0-16 13.686-16 31.982 0 18.328 8.454 32.014 16 32.014S512 658.304 512 639.976c0-18.296-8.452-31.982-15.998-31.982zM496.002 432.006c-17.938 0-31.998-21.084-31.998-47.998s14.06-47.998 31.998-47.998c17.936 0 31.998 21.084 31.998 47.998s-14.062 47.998-31.998 47.998z m0-79.996c-7.546 0-16 13.686-16 31.998s8.454 31.998 16 31.998S512 402.32 512 384.008s-8.452-31.998-15.998-31.998zM551.998 895.976a8.002 8.002 0 0 1-7.998-8V136.024a8.002 8.002 0 0 1 10.154-7.704l399.976 111.994a8.002 8.002 0 0 1 5.842 7.702v527.968a8 8 0 0 1-5.842 7.704L554.154 895.68a7.84 7.84 0 0 1-2.156 0.296z m8-749.406v730.86l383.976-107.508V254.086L559.998 146.57zM408.008 192.02H8.032c-4.422 0-8-3.578-8-8 0-4.42 3.578-8 8-8h399.976a7.994 7.994 0 0 1 7.998 8c0 4.422-3.578 8-7.998 8zM408.008 847.98H8.032c-4.422 0-8-3.578-8-8s3.578-8 8-8h399.976c4.42 0 7.998 3.578 7.998 8s-3.578 8-7.998 8z" fill="" /><path d="M8.032 847.98c-4.422 0-8-3.578-8-8V184.02c0-4.42 3.578-8 8-8s8 3.578 8 8v655.96c0 4.422-3.578 8-8 8zM1015.97 192.02h-191.988c-4.422 0-8-3.578-8-8 0-4.42 3.578-8 8-8h191.988a7.994 7.994 0 0 1 7.998 8c0 4.422-3.578 8-7.998 8z" fill="" /><path d="M1015.97 847.98c-4.422 0-8-3.578-8-8V184.02c0-4.42 3.578-8 8-8a7.994 7.994 0 0 1 7.998 8v655.96c0 4.422-3.578 8-7.998 8z" fill="" /><path d="M1015.97 847.98h-191.988c-4.422 0-8-3.578-8-8s3.578-8 8-8h191.988c4.42 0 7.998 3.578 7.998 8s-3.578 8-7.998 8zM408.008 783.984H72.028c-4.422 0-8-3.578-8-8s3.578-8 8-8h335.98c4.42 0 7.998 3.578 7.998 8s-3.578 8-7.998 8z" fill="" /><path d="M72.028 783.984c-4.422 0-8-3.578-8-8V248.016c0-4.42 3.578-8 8-8s8 3.578 8 8v527.968c0 4.422-3.578 8-8 8z" fill="" /><path d="M408.008 256.016H72.028c-4.422 0-8-3.578-8-8 0-4.42 3.578-8 8-8h335.98a7.994 7.994 0 0 1 7.998 8c0 4.422-3.578 8-7.998 8zM663.976 599.994c-31.388 0-55.98-38.654-55.98-87.994 0-49.34 24.592-87.994 55.98-87.994 4.422 0 8 3.578 8 8s-3.578 8-8 8c-21.672 0-39.982 32.966-39.982 71.996 0 39.028 18.31 71.996 39.982 71.996 4.422 0 8 3.578 8 8a7.994 7.994 0 0 1-8 7.996z" fill="" /><path d="M665.586 559.996c-16.796 0-25.594-24.138-25.594-47.996 0-23.85 8.796-47.998 25.594-47.998 1.656 0 166.394 14.178 166.394 47.998 0 33.826-164.738 47.996-166.394 47.996z m0-79.994c-2.218 0.328-9.594 10.954-9.594 31.998 0 20.966 7.36 31.638 9.61 31.998 17.826-0.016 135.742-17.576 149.74-32.004-13.966-14.422-131.946-31.984-149.756-31.992zM696.022 460.442a7.986 7.986 0 0 1-6.656-3.554c-7.282-10.882-16.294-16.882-25.388-16.882-4.422 0-8-3.578-8-8s3.578-8 8-8c14.608 0 28.342 8.514 38.7 23.99a8 8 0 0 1-6.656 12.446zM663.976 599.994c-4.422 0-8-3.578-8-7.998 0-4.422 3.578-8 8-8 9.094 0 18.108-6 25.388-16.876a8.002 8.002 0 0 1 13.312 8.89c-10.358 15.47-24.092 23.984-38.7 23.984z" fill="" /><path d="M680.006 528a7.994 7.994 0 0 1-7.998-7.992l-0.016-16a8 8 0 0 1 7.982-8.006h0.016c4.422 0 8 3.578 8 7.992l0.016 16a8.006 8.006 0 0 1-8 8.006zM40.03 895.976c-4.422 0-8-3.578-8-8v-15.998c0-4.422 3.578-8 8-8s8 3.578 8 8v15.998c0 4.422-3.578 8-8 8z" fill="" /><path d="M184.022 895.976H40.03c-4.422 0-8-3.578-8-8s3.578-8 8-8h143.992c4.42 0 7.998 3.578 7.998 8s-3.578 8-7.998 8z" fill="" /><path d="M184.022 895.976c-4.422 0-8-3.578-8-8v-15.998c0-4.422 3.578-8 8-8a7.994 7.994 0 0 1 7.998 8v15.998c0 4.422-3.578 8-7.998 8zM839.98 895.976c-4.422 0-8-3.578-8-8v-15.998c0-4.422 3.578-8 8-8s8 3.578 8 8v15.998c0 4.422-3.578 8-8 8z" fill="" /><path d="M983.972 895.976H839.98c-4.422 0-8-3.578-8-8s3.578-8 8-8h143.992c4.422 0 8 3.578 8 8s-3.578 8-8 8z" fill="" /><path d="M983.972 895.976c-4.422 0-8-3.578-8-8v-15.998c0-4.422 3.578-8 8-8s8 3.578 8 8v15.998c0 4.422-3.578 8-8 8zM104.026 751.984a7.996 7.996 0 0 1-5.656-13.654l63.996-63.996a8 8 0 0 1 11.312 11.31L109.682 749.64a7.968 7.968 0 0 1-5.656 2.344zM168.022 352.01a7.976 7.976 0 0 1-5.656-2.344l-63.996-63.996a8 8 0 1 1 11.312-11.312l63.996 63.996a8 8 0 0 1-5.656 13.656z" fill="" /><path d="M408.008 352.01H168.022c-4.422 0-8-3.578-8-8 0-4.42 3.578-8 8-8h239.986a7.994 7.994 0 0 1 7.998 8c0 4.422-3.578 8-7.998 8zM408.008 687.988H168.022c-4.422 0-8-3.578-8-7.998 0-4.422 3.578-8 8-8h239.986a7.994 7.994 0 0 1 7.998 8 7.994 7.994 0 0 1-7.998 7.998zM168.022 655.992c-4.422 0-8-3.578-8-8V376.008c0-4.42 3.578-8 8-8s8 3.578 8 8v271.984c0 4.422-3.578 8-8 8zM496.002 288.014c-4.422 0-8-3.578-8-8V200.02c0-4.422 3.578-8 8-8s8 3.578 8 8v79.994c0 4.422-3.578 8-8 8zM496.002 831.98c-4.422 0-8-3.578-8-8v-79.994c0-4.422 3.578-8 8-8s8 3.578 8 8v79.994c0 4.422-3.578 8-8 8z" fill="" /></svg>